<svg width="500" height="500" viewBox="0 0 1024 1024" fill="none" xmlns="http://www.w3.org/2000/svg">
<path d="M464.896 0H559.104L608.256 6.144L665.6 20.48L718.848 40.96L757.76 59.392L796.672 83.968L823.296 102.4L849.92 124.928L876.544 149.504L890.88 163.84L905.216 180.224L929.792 210.944L944.128 233.472L970.752 278.528L989.184 319.488L1005.57 366.592L1017.86 415.744L1024 464.896V559.104L1017.86 608.256L1003.52 665.6L983.04 718.848L964.608 757.76L940.032 796.672L921.6 823.296L903.168 845.824L872.448 878.592L841.728 907.264L806.912 933.888L770.048 956.416L737.28 974.848L698.368 991.232L657.408 1005.57L608.256 1017.86L559.104 1024H464.896L415.744 1017.86L358.4 1003.52L305.152 983.04L266.24 964.608L227.328 940.032L200.704 921.6L178.176 903.168L145.408 872.448L114.688 839.68L96.256 815.104L75.776 784.384L51.2 741.376L32.768 698.368L18.432 657.408L6.144 608.256L0 559.104V464.896L6.144 415.744L20.48 358.4L40.96 305.152L59.392 266.24L83.968 227.328L102.4 200.704L120.832 178.176L151.552 145.408L184.32 114.688L217.088 90.112L253.952 67.584L286.72 49.152L325.632 32.768L366.592 18.432L415.744 6.144L464.896 0ZM464.896 73.728L454.656 83.968L444.416 94.208L425.984 114.688L399.36 151.552L385.024 174.08L370.688 198.656L352.256 237.568L350.208 245.76L378.88 243.712L425.984 239.616L464.896 237.568L479.232 235.52V73.728H464.896ZM544.768 73.728V235.52L559.104 237.568L624.64 241.664L663.552 245.76H677.888L669.696 225.28L649.216 186.368L630.784 157.696L610.304 129.024L591.872 106.496L563.2 75.776L559.104 73.728H544.768ZM360.448 98.304L329.728 110.592L286.72 133.12L262.144 149.504L237.568 167.936L208.896 192.512L184.32 217.088L165.888 239.616L141.312 274.432L126.976 299.008L145.408 292.864L210.944 272.384L256 262.144L282.624 256L294.912 229.376L307.2 198.656L327.68 159.744L344.064 133.12L362.496 104.448L366.592 98.304H360.448ZM659.456 98.304L671.744 116.736L692.224 147.456L704.512 167.936L714.752 188.416L722.944 206.848L739.328 241.664L745.472 258.048L804.864 270.336L860.16 286.72L892.928 299.008L897.024 296.96L874.496 262.144L856.064 237.568L833.536 210.944L806.912 184.32L784.384 165.888L749.568 141.312L718.848 122.88L679.936 104.448L659.456 98.304ZM432.128 294.912L344.064 303.104L327.68 307.2L321.536 323.584L307.2 385.024L301.056 421.888L296.96 479.232H479.232V294.912H432.128ZM544.768 294.912V479.232H731.136V456.704L727.04 413.696L720.896 376.832L708.608 327.68L702.464 307.2L663.552 301.056L593.92 294.912H544.768ZM765.952 319.488L770.048 342.016L780.288 393.216L786.432 440.32L790.528 479.232H950.272L948.224 450.56L937.984 399.36L931.84 378.88L913.408 368.64L882.688 354.304L837.632 337.92L765.952 319.488ZM256 319.488L186.368 337.92L131.072 358.4L92.16 378.88L86.016 399.36L79.872 421.888L73.728 464.896V479.232H239.616L247.808 401.408L258.048 346.112L262.144 327.68V319.488H256ZM73.728 544.768L75.776 573.44L81.92 608.256L88.064 628.736L118.784 645.12L182.272 669.696L239.616 686.08L260.096 688.128L247.808 622.592L239.616 544.768H73.728ZM296.96 544.768L301.056 602.112L311.296 659.456L321.536 700.416L335.872 704.512L413.696 712.704L442.368 714.752H479.232V544.768H296.96ZM544.768 544.768V714.752H581.632L651.264 708.608L700.416 702.464L706.56 700.416L716.8 665.6L724.992 622.592L729.088 595.968L731.136 569.344V544.768H544.768ZM790.528 544.768L782.336 616.448L774.144 665.6L770.048 688.128L800.768 681.984L854.016 665.6L909.312 643.072L935.936 628.736L942.08 608.256L950.272 559.104V544.768H790.528ZM120.832 708.608L126.976 727.04L149.504 761.856L167.936 786.432L192.512 815.104L219.136 841.728L247.808 864.256L274.432 882.688L305.152 901.12L344.064 919.552L360.448 925.696L366.592 923.648L354.304 907.264L337.92 880.64L319.488 847.872L303.104 815.104L282.624 763.904L278.528 751.616L215.04 737.28L151.552 718.848L124.928 708.608H120.832ZM899.072 708.608L864.256 720.896L802.816 739.328L755.712 749.568L749.568 755.712L729.088 804.864L708.608 847.872L684.032 888.832L663.552 919.552V925.696L694.272 913.408L737.28 890.88L761.856 874.496L786.432 856.064L815.104 831.488L827.392 819.2V815.104L835.584 811.008L860.16 782.336L882.688 749.568L901.12 718.848L903.168 708.608H899.072ZM344.064 763.904L348.16 776.192L356.352 796.672L374.784 831.488L391.168 860.16L415.744 894.976L432.128 915.456L448.512 935.936L458.752 946.176L464.896 950.272H479.232V772.096L407.552 768L366.592 763.904H344.064ZM679.936 761.856L587.776 770.048L544.768 772.096V950.272H559.104L575.488 935.936L598.016 911.36L626.688 872.448L645.12 845.824L659.456 817.152L675.84 786.432L686.08 761.856H679.936Z" fill="#FAFAFA"/>
</svg>
